<svg width="93" height="81" viewBox="0 0 93 81" fill="none" xmlns="http://www.w3.org/2000/svg">
<path d="M48.6758 0C50.3326 0 51.6758 1.34315 51.6758 3V32.874C51.676 35.5465 54.907 36.8848 56.7969 34.9951L76.0684 15.7246C77.2399 14.5534 79.1391 14.5534 80.3105 15.7246L83.627 19.042C84.7983 20.2136 84.7984 22.1127 83.627 23.2842L64.3564 42.5547C62.467 44.4445 63.8052 47.6754 66.4775 47.6758H89.6602C91.317 47.6758 92.6602 49.0189 92.6602 50.6758V55.3672C92.6602 57.024 91.317 58.3672 89.6602 58.3672H66.4775C63.8048 58.3672 62.4665 61.5984 64.3564 63.4883L72.9355 72.0674C74.1068 73.2389 74.1068 75.138 72.9355 76.3096L69.6182 79.627C68.4466 80.7982 66.5475 80.7982 65.376 79.627L62.5821 76.8331C57.8254 72.0764 59.5432 63.3342 60.7544 56.7172C60.9157 55.836 61 54.9279 61 54C61 45.7157 54.2843 39 46 39C37.7157 39 31 45.7157 31 54C31 54.9333 31.0853 55.8467 31.2484 56.7327C32.4914 63.4837 34.3732 72.5374 29.5195 77.3915L27.2842 79.627C26.1127 80.7982 24.2135 80.7982 23.042 79.627L19.7246 76.3096C18.5534 75.138 18.5534 73.2389 19.7246 72.0674L28.3037 63.4883C30.1937 61.5984 28.8554 58.3672 26.1826 58.3672H3C1.34315 58.3672 6.05887e-08 57.024 0 55.3672V50.6758C0 49.0189 1.34315 47.6758 3 47.6758H26.1826C28.8549 47.6754 30.1932 44.4445 28.3037 42.5547L9.0332 23.2842C7.86193 22.1127 7.86193 20.2135 9.0332 19.042L12.3506 15.7246C13.5221 14.5533 15.4213 14.5533 16.5928 15.7246L35.8633 34.9951C37.7531 36.8846 40.984 35.5463 40.9844 32.874V3C40.9844 1.34315 42.3275 6.05887e-08 43.9844 0H48.6758Z" fill="currentColor"/>
</svg>
